<svg width="20" height="20" fill="none" xmlns="http://www.w3.org/2000/svg"><rect rx="-.5" width="19" height="19" transform="translate(.5 .5)" fill="none"/><path d="m14.427 13.248 2.829 2.83a.832.832 0 1 1-1.178 1.178l-2.83-2.83a6.627 6.627 0 0 1-4.081 1.407A6.674 6.674 0 0 1 2.5 9.167 6.674 6.674 0 0 1 9.167 2.5a6.674 6.674 0 0 1 6.666 6.667c0 1.538-.529 2.952-1.406 4.08Zm-5.26-9.081c-2.758 0-5 2.242-5 5 0 2.757 2.242 5 5 5 2.757 0 5-2.243 5-5 0-2.758-2.243-5-5-5Z" clip-rule="evenodd" fill="#8D8D8D" fill-rule="evenodd"/><mask id="a" mask-type="alpha" maskUnits="userSpaceOnUse" x="2.5" y="2.5" width="15" height="15"><path d="m14.427 13.248 2.829 2.83a.832.832 0 1 1-1.178 1.178l-2.83-2.83a6.627 6.627 0 0 1-4.081 1.407A6.674 6.674 0 0 1 2.5 9.167 6.674 6.674 0 0 1 9.167 2.5a6.674 6.674 0 0 1 6.666 6.667c0 1.538-.529 2.952-1.406 4.08Zm-5.26-9.081c-2.758 0-5 2.242-5 5 0 2.757 2.242 5 5 5 2.757 0 5-2.243 5-5 0-2.758-2.243-5-5-5Z" clip-rule="evenodd" fill="#231F20" fill-rule="evenodd"/></mask><g mask="url(#a)"><rect rx="-.5" width="19" height="19" transform="translate(.5 .5)" fill="none"/><path fill="#8D8D8D" d="M0 0h20v20H0z"/><path d="M0 0h20v20H0z"/></g></svg>