<svg width="25" height="25" fill="none" xmlns="http://www.w3.org/2000/svg"><defs><clipPath id="a"><rect rx="-.5" width="24" height="24" transform="translate(.5 .5)" fill="#fff" fill-opacity="0"/></clipPath></defs><rect rx="-.5" width="24" height="24" transform="translate(.5 .5)" fill="none"/><g clip-path="url(#a)"><path d="M25 12.5C25 19.4 19.4 25 12.5 25 5.59 25 0 19.4 0 12.5 0 5.59 5.59 0 12.5 0 19.4 0 25 5.59 25 12.5Z" fill="#039BE5" fill-rule="evenodd"/><path d="m5.71 12.22 12.06-4.64c.56-.2 1.04.13.86.98l-2.05 9.67c-.15.68-.56.85-1.13.53l-3.12-2.31-1.51 1.45c-.17.17-.31.31-.63.31l.22-3.18L16.2 9.8c.26-.22-.05-.35-.38-.13l-7.16 4.51-3.09-.96c-.67-.22-.68-.67.14-1Z" fill="#FFF"/></g></svg>