<svg width="25" height="25" fill="none" xmlns="http://www.w3.org/2000/svg"><defs><clipPath id="a"><rect rx="-.5" width="24" height="24" transform="translate(.5 .5)" fill="#fff" fill-opacity="0"/></clipPath></defs><rect rx="-.5" width="24" height="24" transform="translate(.5 .5)" fill="none"/><g clip-path="url(#a)"><path d="M24.48 6.49a3.132 3.132 0 0 0-2.2-2.2c-1.96-.54-9.79-.54-9.79-.54s-7.82 0-9.78.52a3.194 3.194 0 0 0-2.2 2.22C0 8.45 0 12.51 0 12.51s0 4.07.51 6.01a3.132 3.132 0 0 0 2.2 2.2c1.98.54 9.79.54 9.79.54s7.82 0 9.78-.52a3.115 3.115 0 0 0 2.2-2.2c.51-1.96.51-6.01.51-6.01s.03-4.08-.51-6.04Z" fill="red"/><path d="m10 16.26 6.51-3.75L10 8.76v7.5Z" fill="#FFF"/></g></svg>