<svg width="25" height="25" fill="none" xmlns="http://www.w3.org/2000/svg"><defs><clipPath id="a"><rect rx="-.5" width="24" height="24" transform="translate(.5 .5)" fill="#fff" fill-opacity="0"/></clipPath></defs><rect rx="-.5" width="24" height="24" transform="translate(.5 .5)" fill="none"/><g clip-path="url(#a)"><path d="M23.62 0H1.37C.61 0-.01.61 0 1.37v22.25C0 24.38.61 25 1.38 25h22.24c.76 0 1.37-.62 1.38-1.38V1.37C24.99.61 24.38-.01 23.62 0Z" fill="#4267B2"/><path d="M17.26 25v-9.67h3.26l.48-3.79h-3.74V9.13c0-1.09.3-1.84 1.87-1.84h1.98V3.92c-.34-.05-1.53-.15-2.91-.15-2.88 0-4.85 1.76-4.85 4.99v2.78H10.1v3.79h3.25V25h3.91Z" fill="#FFF"/></g></svg>