<svg width="25" height="25" fill="none" xmlns="http://www.w3.org/2000/svg"><defs><linearGradient x1="1.61" y1="23.403" x2="23.396" y2="1.62" id="b" gradientUnits="userSpaceOnUse"><stop stop-color="#FD5"/><stop offset=".5" stop-color="#FF543E"/><stop offset="1" stop-color="#C837AB"/></linearGradient><clipPath id="a"><rect rx="-.5" width="24" height="24" transform="translate(.5 .5)" fill="#fff" fill-opacity="0"/></clipPath></defs><rect rx="-.5" width="24" height="24" transform="translate(.5 .5)" fill="none"/><g clip-path="url(#a)"><path d="M1.56 1.7C-.41 3.74 0 5.9 0 12.49c0 5.47-.96 10.95 4.03 12.24 1.56.4 15.38.4 16.94 0 2.08-.54 3.77-2.22 4-5.16.03-.41.03-13.74 0-14.16-.25-3.13-2.18-4.93-4.72-5.3-.58-.08-.69-.11-3.68-.11C5.97 0 3.65-.47 1.56 1.7Z" fill="url(#b)"/><path d="M12.49 3.26c-3.78 0-7.37-.33-8.74 3.19-.57 1.45-.49 3.34-.49 6.05 0 2.37-.07 4.6.49 6.04 1.37 3.52 4.99 3.19 8.74 3.19 3.62 0 7.36.37 8.75-3.19.56-1.47.48-3.33.48-6.04 0-3.61.2-5.94-1.55-7.69C18.4 3.04 16 3.26 12.49 3.26Zm-.82 1.67c7.89-.01 8.89-.89 8.34 11.29-.2 4.31-3.48 3.84-7.52 3.84-7.35 0-7.56-.21-7.56-7.57 0-7.44.58-7.56 6.74-7.56Zm5.75 1.53c-.61 0-1.11.5-1.11 1.11 0 .61.5 1.11 1.11 1.11.61 0 1.11-.5 1.11-1.11 0-.61-.5-1.11-1.11-1.11Zm-4.93 1.3c-2.61 0-4.74 2.12-4.74 4.74a4.75 4.75 0 0 0 4.74 4.74c2.62 0 4.74-2.13 4.74-4.74 0-2.62-2.12-4.74-4.74-4.74Zm0 1.66c4.07 0 4.08 6.15 0 6.15-4.06 0-4.07-6.15 0-6.15Z" fill="#FFF"/></g></svg>