<svg width="260.809" height="17.35" fill="none" xmlns="http://www.w3.org/2000/svg"><path d="M230.98 17.05q.12.05.28.05h12.31q.16 0 .29-.06.08-.04.15-.11.11-.11.16-.25.02-.08.02-.17v-2.43q0-.16-.07-.28-.04-.08-.11-.15-.06-.06-.14-.1-.13-.07-.3-.07h-6.17l2.21-2.23q1.3-.98 2.24-1.91.95-.93 1.47-1.94.19-.37.3-.76.22-.69.22-1.44 0-1.36-.57-2.42-.08-.15-.18-.3-.08-.14-.18-.26-.73-.98-1.99-1.56-1.43-.66-3.47-.66-1.49 0-2.68.44-1.18.44-2.04 1.21-.53.48-.91 1.05-.23.35-.41.73-.15.34-.26.69-.21.71-.23 1.49 0 .13.05.24.04.07.09.12.06.06.12.09.11.05.25.05h3q.16 0 .31-.04.09-.03.18-.07l.06-.04q.18-.13.26-.4.1-.5.35-.98.13-.25.31-.45.17-.19.39-.33.46-.3 1.16-.3.98 0 1.41.48l.04.06q.05.06.09.13.33.5.33 1.22 0 .7-.6 1.49t-1.83 1.81q-1.24 1.02-3.16 2.48l-2.5 2.45q-.4.31-.5.67-.1.34-.1.51v1.71q0 .1.03.18.05.13.15.24.08.07.17.12Zm-139.23-.46q1.65.75 3.93.75 2.28 0 3.99-.77 1.29-.59 2.13-1.55.29-.33.53-.7v-.01q.94-1.46.94-3.52V8.06q0-.16-.07-.29-.04-.09-.1-.16-.07-.07-.16-.12-.12-.06-.28-.06h-6.04q-.16 0-.28.06-.09.05-.16.12-.06.07-.09.14-.07.14-.07.31v1.77q0 .17.07.31.03.07.09.14.07.06.14.11.13.06.3.06h2.25v.46q0 1.03-.41 1.69-.2.34-.49.58-.27.24-.62.4-.71.31-1.6.31-1.21 0-1.98-.58-.11-.08-.2-.17-.82-.74-.89-2.42-.07-2.11 0-4.17.07-1.59.87-2.31l.16-.14q.76-.58 1.97-.58.91 0 1.48.29.56.29.89.69.32.39.49.75.09.16.22.25.14.08.4.08h3.5q.12 0 .22-.04.09-.03.16-.1.08-.07.12-.16.04-.09.04-.2-.03-.87-.54-1.75-.5-.89-1.45-1.64-.94-.74-2.34-1.18-1.39-.44-3.19-.44-2.23 0-3.89.74-1.2.54-2.01 1.44-.31.33-.56.72-.91 1.41-1 3.45-.02 1.06-.02 2.23 0 1.16.02 2.19.09 2.09.99 3.54.3.49.69.9.76.81 1.85 1.31ZM.3 17.04q.13.06.29.06h2.89q.17 0 .29-.07.07-.04.13-.1.1-.1.14-.23.03-.09.03-.19V7.77l5.86 8.88q.05.07.23.26t.56.19h2.57q.17 0 .3-.07.07-.04.13-.1.06-.07.1-.16.07-.13.07-.29V.9q0-.18-.08-.31-.04-.06-.09-.11-.06-.06-.12-.1-.13-.07-.31-.07h-2.88q-.18 0-.31.07-.07.04-.13.1-.04.04-.08.1-.08.14-.08.32v9.07L3.96.76Q3.9.66 3.72.49 3.55.31 3.14.31H.59q-.17 0-.3.07-.07.04-.13.1-.05.04-.08.1Q0 .72 0 .9v15.61q0 .11.03.21.04.11.13.21.06.06.14.11Zm15.89.05q.05.01.1.01h2.95q.41 0 .58-.17.17-.18.21-.33l.92-2.45h6.4l.94 2.45q.05.15.23.33.18.17.54.17h2.95q.11 0 .21-.04.09-.03.16-.11.12-.12.15-.25.01-.05.01-.1 0-.1-.03-.18l-.02-.04L26.87.97q-.01-.05-.03-.1-.08-.2-.27-.36-.23-.2-.64-.2h-3.55q-.39 0-.62.19 0 .01-.01.01-.18.16-.26.36l-.04.1-5.64 15.41q-.02.1-.02.22 0 .05.01.11.03.13.14.24.11.11.25.14Zm18.66-.02q.08.03.18.03h2.89q.17 0 .29-.07.07-.04.13-.1.1-.1.14-.23.03-.09.03-.19v-9l2.72 5.01q.01.04.03.07.11.18.28.32.19.16.52.16h1.25q.34 0 .53-.16.15-.13.26-.3.03-.04.06-.09l2.68-5.01v9q0 .09.03.17.04.14.15.25.08.07.17.12.12.05.28.05h2.85q.15 0 .28-.05.09-.05.17-.12.11-.11.15-.25.03-.08.03-.17V.9q0-.16-.07-.28-.04-.08-.11-.14-.08-.07-.16-.11-.13-.06-.29-.06h-2.57q-.4 0-.59.2-.17.2-.24.32l-4.23 7.56L38.47.83q-.05-.12-.24-.32-.2-.2-.61-.2h-2.59q-.1 0-.2.03-.12.04-.22.14-.06.05-.1.13-.08.12-.08.29v15.61q0 .1.03.18.05.13.15.24.11.1.24.14Zm18.39.02q.05.01.11.01h2.95q.4 0 .57-.17.17-.18.22-.33l.91-2.45h6.41l.94 2.45q.04.15.22.33.19.17.54.17h2.96q.11 0 .2-.04.09-.03.17-.11.11-.12.14-.25.01-.05.01-.1 0-.1-.03-.18 0-.02-.01-.04L63.93.97l-.04-.1q-.08-.2-.26-.36-.23-.2-.64-.2h-3.55q-.39 0-.62.19l-.01.01q-.19.16-.27.36-.02.05-.03.1l-5.64 15.41q-.03.1-.03.22 0 .05.01.11.03.13.14.24.12.11.25.14Zm18.56-.05q.12.06.29.06h2.88q.17 0 .3-.07.07-.04.13-.1.1-.1.14-.23.03-.09.03-.19V7.77l5.85 8.88q.06.07.23.26.18.19.57.19h2.57q.17 0 .29-.07.08-.04.13-.1.07-.07.11-.16.06-.13.06-.29V.9q0-.18-.07-.31-.04-.06-.1-.11-.05-.06-.11-.1-.14-.07-.31-.07H81.9q-.17 0-.3.07-.07.04-.13.1-.05.04-.08.1-.08.14-.08.32v9.07L75.45.76q-.05-.1-.23-.27-.18-.18-.59-.18h-2.54q-.17 0-.31.07-.07.04-.12.1-.05.04-.09.1-.08.14-.08.32v15.61q0 .11.04.21.04.11.13.21.06.06.14.11Zm32.8.05q.05.01.11.01h2.95q.4 0 .57-.17.17-.18.22-.33l.91-2.45h6.41l.94 2.45q.04.15.23.33.18.17.53.17h2.96q.11 0 .2-.04.09-.03.17-.11.11-.12.14-.25.01-.05.01-.1 0-.1-.03-.18 0-.02-.01-.04L115.29.97l-.04-.1q-.08-.2-.26-.36-.23-.2-.64-.2h-3.55q-.39 0-.62.19l-.01.01q-.19.16-.27.36-.02.05-.03.1l-5.64 15.41q-.03.1-.03.22 0 .05.01.11.04.13.14.24.12.11.25.14Zm18.56-.05q.12.06.29.06h2.88q.17 0 .3-.07.07-.04.13-.1.1-.1.14-.23.03-.09.03-.19V7.77l5.85 8.88q.06.07.23.26.18.19.57.19h2.57q.17 0 .29-.07.08-.04.13-.1.07-.07.11-.16.06-.13.06-.29V.9q0-.18-.07-.31-.04-.06-.1-.11-.05-.06-.11-.1-.14-.07-.31-.07h-2.89q-.17 0-.3.07-.07.04-.13.1-.05.04-.08.1-.08.14-.08.32v9.07L126.81.76q-.05-.1-.23-.27-.18-.18-.59-.18h-2.54q-.17 0-.31.07-.07.04-.12.1-.05.04-.09.1-.08.14-.08.32v15.61q0 .11.04.21.04.11.13.21.06.06.14.11Zm17.25 0q.13.06.3.06h11.03q.17 0 .3-.06.07-.05.14-.11.09-.1.14-.23.03-.09.03-.19V14.1q0-.16-.07-.29-.04-.08-.1-.15-.07-.07-.16-.11-.12-.07-.28-.07h-7.27V.9q0-.18-.08-.31-.03-.06-.09-.11-.05-.06-.11-.1-.14-.07-.31-.07h-3.17q-.18 0-.31.07-.07.04-.13.1-.05.04-.08.1-.08.14-.08.32v15.61q0 .11.03.21.04.11.13.21.07.06.14.11Zm14.33 0q.13.06.29.06h3.22q.16 0 .28-.06.09-.04.16-.11.11-.11.15-.25.03-.08.03-.17V.9q0-.16-.07-.28-.04-.08-.11-.14-.07-.07-.14-.11-.13-.06-.3-.06h-3.22q-.17 0-.3.07-.07.04-.13.1-.05.04-.08.1-.08.14-.08.32v15.61q0 .11.03.21.04.11.13.21.06.06.14.11Zm7.78 0q.12.06.29.06h3.02q.17 0 .29-.06.08-.05.15-.11.09-.1.13-.23.04-.09.04-.19v-5.82l4.75 5.93q.07.1.3.29.23.19.65.19h3.58q.13 0 .23-.04.07-.04.13-.11.1-.11.13-.24.02-.05.02-.11 0-.19-.1-.28v-.01l-6.19-7.97 5.76-7.24q.07-.13.07-.29 0-.07-.02-.13-.03-.12-.13-.22-.06-.07-.14-.11-.1-.04-.21-.04h-3.46q-.38 0-.61.15-.23.16-.33.3l-4.43 5.48V.9q0-.18-.08-.31-.04-.06-.09-.11-.06-.06-.13-.1-.13-.07-.31-.07h-3.02q-.17 0-.31.07-.07.04-.12.1-.05.04-.09.1-.08.14-.08.32v15.61q0 .11.04.21.04.11.13.21.06.06.14.11Zm15.91 0q.13.06.29.06h11.04q.16 0 .29-.06.08-.05.14-.11.1-.1.14-.23.03-.09.03-.19V14.1q0-.16-.06-.29-.04-.08-.11-.15-.07-.07-.15-.11-.12-.07-.28-.07h-7.27V.9q0-.18-.08-.31-.04-.06-.09-.11-.05-.06-.12-.1-.13-.07-.31-.07h-3.17q-.17 0-.3.07-.07.04-.13.1-.05.04-.08.1-.09.14-.09.32v15.61q0 .11.04.21.04.11.13.21.06.06.14.11Zm12.96.05q.05.01.1.01h2.95q.41 0 .58-.17.17-.18.21-.33l.92-2.45h6.4l.94 2.45q.05.15.23.33.18.17.54.17h2.95q.11 0 .21-.04.09-.03.16-.11.12-.12.15-.25.01-.05.01-.1 0-.1-.03-.18l-.02-.04L202.07.97q-.01-.05-.03-.1-.08-.2-.27-.36-.23-.2-.63-.2h-3.56q-.39 0-.62.19 0 .01-.01.01-.18.16-.26.36l-.04.1-5.64 15.41q-.02.1-.02.22 0 .05.01.11.03.13.14.24.11.11.25.14Zm18.55-.05q.13.06.29.06h3.1q.16 0 .29-.06.08-.04.15-.11.11-.11.16-.25.02-.08.02-.17v-5.34h2.45l2.74 5.28q.09.2.31.43.22.22.67.22h3.19q.06 0 .12-.01.12-.03.23-.14.11-.12.14-.25.02-.05.02-.1 0-.12-.08-.26l-3.28-5.91q.8-.36 1.42-.92.41-.38.73-.85.05-.06.09-.13.73-1.14.73-2.75 0-1.79-.82-3.02-.39-.57-.95-1.02-1.78-1.43-4.9-1.43h-6.53q-.17 0-.3.07-.07.04-.13.1-.05.04-.08.1-.08.14-.08.32v15.61q0 .11.03.21.04.11.13.21.06.06.14.11Zm44.36.03q.09.03.19.03h2.97q.1 0 .19-.03.13-.04.24-.14.11-.11.15-.25.03-.08.03-.17v-2.72h2.13q.11 0 .2-.03.12-.04.22-.14.08-.07.12-.15.06-.12.06-.28v-2.37q0-.11-.03-.2-.04-.12-.14-.22-.04-.06-.1-.09-.15-.1-.35-.1h-2.11V.9q0-.16-.07-.28-.04-.08-.11-.14-.11-.1-.23-.14-.09-.03-.2-.03h-3.5q-.37 0-.63.17-.15.09-.25.23l-6.99 9.46q-.1.17-.18.35-.08.17-.08.39v2.28q0 .16.07.29.04.08.1.14.11.1.23.14.09.03.2.03h7.46v2.72q0 .1.03.18.04.13.15.24.1.1.23.14Zm-37.59-9.3h-2.76V3.64h2.76q1.18 0 1.72.58.11.12.2.25.34.51.34 1.26 0 .72-.34 1.22-.1.14-.22.27-.57.55-1.7.55ZM24.16 4.36l2.23 6.33h-4.46l2.23-6.33Zm37.06 0 2.23 6.33h-4.47l2.24-6.33Zm51.36 0 2.23 6.33h-4.47l2.24-6.33Zm86.78 0 2.23 6.33h-4.46l2.23-6.33Zm54.62 6.02h-4.03l4.03-5.66v5.66Z" fill="#7296EE" fill-rule="evenodd"/></svg>